<?xml version="1.0" encoding="utf-8"?>
<?xml-stylesheet type="text/xsl" href="rss1.xsl"?>
<rss version="2.0" xmlns:atom="http://www.w3.org/2005/Atom" xmlns:content="http://purl.org/rss/1.0/modules/content/" xmlns:dc="http://purl.org/dc/elements/1.1/" xmlns:media="http://search.yahoo.com/mrss/">
<channel>
 <title>Getty</title>
 <link>http://www.gettyimg.com/</link>
 <atom:link href="http://www.gettyimg.com/" rel="self" type="application/rss+xml" />

 
                <item>
                <title><![CDATA[【Music Videos】Smash Mouth -  I'm A Believer (Xtendz - 1080 (Clean) [Extended]) (VjPro/Smashvision Pool)]]></title>
                <link><![CDATA[https://sharemania.us/threads/smash-mouth-im-a-believer-xtendz-1080-clean-extended-vjpro-smashvision-pool.227746/]]></link>
                <description><![CDATA[<article>
<blockquote class="messageText SelectQuoteContainer ugc baseHtml">
<img src="https://i.imgur.com/TnpCjJl.jpg" class="bbCodeImage LbImage" alt="[​IMG]" data-url="https://i.imgur.com/TnpCjJl.jpg" style=""> <br>
<b>Smash Mouth - I'm A Believer (Xtendz - 1080 (Clean) [Extended]) </b><br>
<b>Year: 2001<br>
BPM: 82.38<br>
Grouping: Clean<br>
<b><span style="font-size: 18px">Genre:Old School / Classics</span></b><br>
Rip from VjPro/Smashvision With Virtual DJ 2023<br>
<br>
[/URL]
<div class="bbCodeBlock bbCodeVfcHH HiddenContent">
<div class="attribution type">Hidden Content:</div>
<blockquote>You must reply before you can see the hidden data contained here.</blockquote>
</div></b>
<div class="messageTextEndMarker">&nbsp;</div>
</blockquote>
</article>]]></description>
                <author><![CDATA[gamerfronts]]></author>
                </item>

                
                <item>
                <title><![CDATA[【PRORES HD】Lena - Neon (Lonely People) |ProRes 1080|]]></title>
                <link><![CDATA[https://sharemania.us/threads/lena-neon-lonely-people-prores-1080.227747/]]></link>
                <description><![CDATA[<article>
<blockquote class="messageText SelectQuoteContainer ugc baseHtml">
<div style="text-align: center"><img src="https://i.imgur.com/MISb3Aj.gif" class="bbCodeImage LbImage" alt="[​IMG]" data-url="https://i.imgur.com/MISb3Aj.gif" style=""><br>
<br>
​</div>
<div class="ToggleTriggerAnchor bbCodeSpoilerContainer">
<button type="button" class="button bbCodeSpoilerButton ToggleTrigger Tooltip JsOnly" data-target="> .SpoilerTarget"><span>Spoiler: <span class="SpoilerTitle">ProRes</span></span></button>
<div class="SpoilerTarget bbCodeSpoilerText">
<div class="bbCodeBlock bbCodeCode">
<div class="type">Code:</div>
<pre>Format                                   : MPEG-4
Format profile                           : QuickTime
Codec ID                                 : qt   2005.03 (qt  )
File size                                : 1.01 GiB
Duration                                 : 3 min 31 s
Overall bit rate mode                    : Variable
Overall bit rate                         : 41.1 Mb/s
Encoded date                             : UTC 2013-02-21 12:14:22
Tagged date                              : UTC 2013-02-21 14:10:35
Writing library                          : Apple QuickTime
TIM                                      : 00:00:00:19
TSC                                      : 25
TSZ                                      : 1

Video
ID                                       : 1
Format                                   : AVC
Format/Info                              : Advanced Video Codec
Format profile                           : Main@L4.1
Format settings                          : 2 Ref Frames
Format settings, CABAC                   : No
Format settings, Reference frames        : 2 frames
Format settings, GOP                     : N=1
Codec ID                                 : avc1
Codec ID/Info                            : Advanced Video Coding
Duration                                 : 3 min 31 s
Bit rate mode                            : Variable
Bit rate                                 : 39.5 Mb/s
Width                                    : 1 920 pixels
Height                                   : 816 pixels
Display aspect ratio                     : 2.35:1
Frame rate mode                          : Constant
Frame rate                               : 25.000 FPS
Color space                              : YUV
Chroma subsampling                       : 4:2:0
Bit depth                                : 8 bits
Scan type                                : Progressive
Bits/(Pixel*Frame)                       : 1.009
Stream size                              : 994 MiB (96%)
Language                                 : English
Encoded date                             : UTC 2013-02-21 12:14:22
Tagged date                              : UTC 2013-02-21 14:10:35
Color range                              : Limited
Color primaries                          : BT.709
Transfer characteristics                 : BT.709
Matrix coefficients                      : BT.709
Codec configuration box                  : avcC

Audio
ID                                       : 2
Format                                   : PCM
Format settings                          : Little / Signed
Codec ID                                 : sowt
Duration                                 : 3 min 31 s
Bit rate mode                            : Constant
Bit rate                                 : 1 536 kb/s
Channel(s)                               : 2 channels
Channel layout                           : L R
Sampling rate                            : 48.0 kHz
Bit depth                                : 16 bits
Stream size                              : 38.6 MiB (4%)
Language                                 : English
Encoded date                             : UTC 2013-02-21 12:14:22
Tagged date                              : UTC 2013-02-21 14:10:35

Other
ID                                       : 3
Type                                     : Time code
Format                                   : QuickTime TC
Duration                                 : 3 min 31 s
Frame rate                               : 25.000 FPS
Time code of first frame                 : 00:00:00:19
Time code, striped                       : Yes
Language                                 : English
Encoded date                             : UTC 2013-02-21 14:10:35
Tagged date                              : UTC 2013-02-21 14:10:35</pre>
</div><div style="text-align: center">​</div></div>
</div><div style="text-align: center"><br>
<br>
<br>
<div class="bbCodeBlock bbCodeVfcHH HiddenContent">
<div class="attribution type">Hidden Content:</div>
<blockquote>You must reply before you can see the hidden data contained here.</blockquote>
</div></div>
<div class="messageTextEndMarker">&nbsp;</div>
</blockquote>
</article>]]></description>
                <author><![CDATA[fstambuk]]></author>
                </item>

                
                <item>
                <title><![CDATA[【Music Videos】Smash Mouth - All Star (Xtendz (Clean) [Extended]) (VjPro/Smashvision Pool)]]></title>
                <link><![CDATA[https://sharemania.us/threads/smash-mouth-all-star-xtendz-clean-extended-vjpro-smashvision-pool.227745/]]></link>
                <description><![CDATA[<article>
<blockquote class="messageText SelectQuoteContainer ugc baseHtml">
<img src="https://i.imgur.com/Fap6JND.jpg" class="bbCodeImage LbImage" alt="[​IMG]" data-url="https://i.imgur.com/Fap6JND.jpg" style=""><br>
<b>Smash Mouth - All Star (Xtendz (Clean) [Extended])<br>
Year: 1999<br>
BPM: 104.00<br>
Grouping: Clean<br>
<b><span style="font-size: 18px">Genre:Old School / Classics<br>
Recorded in 1080 SD footage</span></b><br>
Rip from VjPro/Smashvision With Virtual DJ 2023<br>
<br>
[/URL]
<div class="bbCodeBlock bbCodeVfcHH HiddenContent">
<div class="attribution type">Hidden Content:</div>
<blockquote>You must reply before you can see the hidden data contained here.</blockquote>
</div></b>
<div class="messageTextEndMarker">&nbsp;</div>
</blockquote>
</article>]]></description>
                <author><![CDATA[gamerfronts]]></author>
                </item>

                </channel></rss>